# This file uses centimeters as units for non-parametric coordinates.

mtllib MusicNoteMain.mtl
g default
v -1.006268 0.129288 1.006268
v 1.006268 0.129288 1.006268
v -1.006268 0.491405 1.006268
v 1.006268 0.491405 1.006268
v -1.006268 0.491405 -1.006268
v 1.006268 0.491405 -1.006268
v -1.006268 0.129288 -1.006268
v 1.006268 0.129288 -1.006268
v -0.563803 0.742563 0.563803
v 0.563803 0.742563 0.563803
v 0.563803 0.742563 -0.563803
v -0.563803 0.742563 -0.563803
vt 0.375000 0.000000
vt 0.625000 0.000000
vt 0.375000 0.250000
vt 0.625000 0.250000
vt 0.375000 0.500000
vt 0.625000 0.500000
vt 0.375000 0.750000
vt 0.625000 0.750000
vt 0.375000 1.000000
vt 0.625000 1.000000
vt 0.875000 0.000000
vt 0.875000 0.250000
vt 0.125000 0.000000
vt 0.125000 0.250000
vt 0.375000 0.250000
vt 0.625000 0.250000
vt 0.625000 0.500000
vt 0.375000 0.500000
vn 0.000000 0.000000 1.000000
vn 0.000000 0.000000 1.000000
vn 0.000000 0.000000 1.000000
vn 0.000000 0.000000 1.000000
vn 0.000000 1.000000 0.000000
vn 0.000000 1.000000 0.000000
vn 0.000000 1.000000 0.000000
vn 0.000000 1.000000 0.000000
vn 0.000000 0.000000 -1.000000
vn 0.000000 0.000000 -1.000000
vn 0.000000 0.000000 -1.000000
vn 0.000000 0.000000 -1.000000
vn 0.000000 -1.000000 0.000000
vn 0.000000 -1.000000 0.000000
vn 0.000000 -1.000000 0.000000
vn 0.000000 -1.000000 0.000000
vn 1.000000 0.000000 0.000000
vn 1.000000 0.000000 0.000000
vn 1.000000 0.000000 0.000000
vn 1.000000 0.000000 0.000000
vn -1.000000 0.000000 0.000000
vn -1.000000 0.000000 0.000000
vn -1.000000 0.000000 0.000000
vn -1.000000 0.000000 0.000000
vn 0.000000 0.869661 0.493649
vn 0.000000 0.869661 0.493649
vn 0.000000 0.869661 0.493649
vn 0.000000 0.869661 0.493649
vn 0.493649 0.869661 0.000000
vn 0.493649 0.869661 0.000000
vn 0.493649 0.869661 0.000000
vn 0.493649 0.869661 0.000000
vn 0.000000 0.869661 -0.493649
vn 0.000000 0.869661 -0.493649
vn 0.000000 0.869661 -0.493649
vn 0.000000 0.869661 -0.493649
vn -0.493649 0.869661 0.000000
vn -0.493649 0.869661 0.000000
vn -0.493649 0.869661 0.000000
vn -0.493649 0.869661 0.000000
s off
g pCube3
usemtl initialShadingGroup
f 1/1/1 2/2/2 4/4/3 3/3/4
f 9/15/5 10/16/6 11/17/7 12/18/8
f 5/5/9 6/6/10 8/8/11 7/7/12
f 7/7/13 8/8/14 2/10/15 1/9/16
f 2/2/17 8/11/18 6/12/19 4/4/20
f 7/13/21 1/1/22 3/3/23 5/14/24
f 3/3/25 4/4/26 10/16/27 9/15/28
f 4/4/29 6/6/30 11/17/31 10/16/32
f 6/6/33 5/5/34 12/18/35 11/17/36
f 5/5/37 3/3/38 9/15/39 12/18/40
g default
v -1.271539 -0.038886 1.271539
v 1.271539 -0.038886 1.271539
v -1.271539 0.170182 1.271539
v 1.271539 0.170182 1.271539
v -1.271539 0.170182 -1.271539
v 1.271539 0.170182 -1.271539
v -1.271539 -0.038886 -1.271539
v 1.271539 -0.038886 -1.271539
vt 0.375000 0.000000
vt 0.625000 0.000000
vt 0.375000 0.250000
vt 0.625000 0.250000
vt 0.375000 0.500000
vt 0.625000 0.500000
vt 0.375000 0.750000
vt 0.625000 0.750000
vt 0.375000 1.000000
vt 0.625000 1.000000
vt 0.875000 0.000000
vt 0.875000 0.250000
vt 0.125000 0.000000
vt 0.125000 0.250000
vn 0.000000 0.000000 1.000000
vn 0.000000 0.000000 1.000000
vn 0.000000 0.000000 1.000000
vn 0.000000 0.000000 1.000000
vn 0.000000 1.000000 0.000000
vn 0.000000 1.000000 0.000000
vn 0.000000 1.000000 0.000000
vn 0.000000 1.000000 0.000000
vn 0.000000 0.000000 -1.000000
vn 0.000000 0.000000 -1.000000
vn 0.000000 0.000000 -1.000000
vn 0.000000 0.000000 -1.000000
vn 0.000000 -1.000000 0.000000
vn 0.000000 -1.000000 0.000000
vn 0.000000 -1.000000 0.000000
vn 0.000000 -1.000000 0.000000
vn 1.000000 0.000000 0.000000
vn 1.000000 0.000000 0.000000
vn 1.000000 0.000000 0.000000
vn 1.000000 0.000000 0.000000
vn -1.000000 0.000000 0.000000
vn -1.000000 0.000000 0.000000
vn -1.000000 0.000000 0.000000
vn -1.000000 0.000000 0.000000
s off
g pCube1
usemtl initialShadingGroup
f 13/19/41 14/20/42 16/22/43 15/21/44
f 15/21/45 16/22/46 18/24/47 17/23/48
f 17/23/49 18/24/50 20/26/51 19/25/52
f 19/25/53 20/26/54 14/28/55 13/27/56
f 14/20/57 20/29/58 18/30/59 16/22/60
f 19/31/61 13/19/62 15/21/63 17/32/64
