# This file uses centimeters as units for non-parametric coordinates.

mtllib VHSBox.mtl
g default
v 0.447378 1.010565 1.969667
v 0.447378 8.212030 1.969667
v -0.383866 1.010565 1.969667
v -0.383865 8.212030 1.969667
v -0.383866 1.010565 -1.969667
v -0.383865 8.212030 -1.969667
v 0.447378 1.010565 -1.969667
v 0.447378 8.212030 -1.969667
v 0.031756 1.240791 1.969667
v 0.031756 8.212030 1.969667
v 0.031756 8.212030 -1.969667
v 0.031756 1.240791 -1.969667
v 0.353033 1.010565 1.969667
v 0.239567 8.212030 1.969667
v 0.239567 8.212030 -1.969667
v 0.353033 1.010565 -1.969667
v -0.289520 1.010565 -1.969667
v -0.176055 8.212030 -1.969667
v -0.176055 8.212030 1.969667
v -0.289520 1.010565 1.969667
v 0.284559 1.156147 -1.969667
v 0.135662 8.212030 -1.969667
v 0.135662 8.212030 1.969667
v 0.284559 1.156147 1.969667
v -0.221046 1.156147 1.969667
v -0.072149 8.212030 1.969667
v -0.072149 8.212030 -1.969667
v -0.221046 1.156147 -1.969667
vt 0.102146 0.897422
vt 0.492206 0.897422
vt 0.492206 0.990670
vt 0.102146 0.990670
vt 0.971810 0.013663
vt 0.971809 0.897422
vt 0.579826 0.897422
vt 0.579826 0.013663
vt 0.492206 0.013663
vt 0.102146 0.013663
vt 0.014526 0.897422
vt 0.014526 0.013663
vt 0.058336 0.039953
vt 0.058336 0.897422
vt 0.102146 0.944046
vt 0.536016 0.897422
vt 0.492206 0.944046
vt 0.536016 0.039953
vt 0.088425 0.013663
vt 0.080241 0.897422
vt 0.102146 0.920734
vt 0.514111 0.897422
vt 0.492206 0.920734
vt 0.506568 0.013663
vt 0.565463 0.013663
vt 0.557921 0.897422
vt 0.492206 0.967358
vt 0.036431 0.897422
vt 0.102146 0.967358
vt 0.028247 0.013663
vt 0.518404 0.034227
vt 0.525063 0.897422
vt 0.492206 0.932390
vt 0.069288 0.897422
vt 0.102146 0.932390
vt 0.076007 0.034227
vt 0.040664 0.034227
vt 0.047383 0.897422
vt 0.102146 0.955702
vt 0.546968 0.897422
vt 0.492206 0.955702
vt 0.553628 0.034227
vn 0.000000 0.000000 1.000000
vn 0.000000 0.000000 1.000000
vn 0.000000 0.000000 1.000000
vn 0.000000 0.000000 1.000000
vn -1.000000 0.000000 0.000000
vn -1.000000 0.000000 0.000000
vn -1.000000 0.000000 0.000000
vn -1.000000 0.000000 0.000000
vn -0.000000 -0.000000 -1.000000
vn -0.000000 -0.000000 -1.000000
vn -0.000000 -0.000000 -1.000000
vn -0.000000 -0.000000 -1.000000
vn 1.000000 0.000000 0.000000
vn 1.000000 0.000000 0.000000
vn 1.000000 0.000000 0.000000
vn 1.000000 0.000000 0.000000
vn 0.000000 1.000000 0.000000
vn 0.000000 1.000000 0.000000
vn 0.000000 1.000000 0.000000
vn 0.000000 1.000000 0.000000
vn 0.000000 -0.000000 1.000000
vn 0.000000 -0.000000 1.000000
vn 0.000000 -0.000000 1.000000
vn 0.000000 -0.000000 1.000000
vn 0.000000 1.000000 0.000000
vn 0.000000 1.000000 0.000000
vn 0.000000 1.000000 0.000000
vn 0.000000 1.000000 0.000000
vn 0.000000 0.000000 -1.000000
vn 0.000000 0.000000 -1.000000
vn 0.000000 0.000000 -1.000000
vn 0.000000 0.000000 -1.000000
vn 0.000000 0.000000 1.000000
vn 0.000000 0.000000 1.000000
vn 0.000000 1.000000 0.000000
vn 0.000000 1.000000 0.000000
vn 0.000000 0.000000 -1.000000
vn 0.000000 0.000000 -1.000000
vn 0.000000 0.000000 -1.000000
vn 0.000000 0.000000 -1.000000
vn 0.000000 1.000000 0.000000
vn 0.000000 1.000000 0.000000
vn 0.000000 0.000000 1.000000
vn 0.000000 0.000000 1.000000
vn 0.000000 0.000000 -1.000000
vn 0.000000 0.000000 -1.000000
vn 0.000000 1.000000 0.000000
vn 0.000000 1.000000 0.000000
vn 0.000000 0.000000 1.000000
vn 0.000000 0.000000 1.000000
s 1
g pCube1
usemtl initialShadingGroup
f 25/37/1 26/38/2 19/28/3 20/30/4
s off
f 3/5/5 4/6/6 6/7/7 5/8/8
s 2
f 17/25/9 18/26/10 27/40/11 28/42/12
s off
f 7/9/13 8/2/14 2/1/15 1/10/16
s 3
f 26/39/17 27/41/18 18/27/19 19/29/20
s 1
f 13/19/21 14/20/22 23/34/23 24/36/24
s 3
f 14/21/25 15/23/26 22/33/27 23/35/28
s 2
f 21/31/29 22/32/30 15/22/31 16/24/32
s 1
f 1/10/33 2/1/34 14/20/22 13/19/21
s 3
f 2/1/35 8/2/36 15/23/26 14/21/25
s 2
f 16/24/32 15/22/31 8/2/37 7/9/38
f 5/8/39 6/7/40 18/26/10 17/25/9
s 3
f 19/29/20 18/27/19 6/3/41 4/4/42
s 1
f 20/30/4 19/28/3 4/11/43 3/12/44
s 2
f 12/18/45 11/16/46 22/32/30 21/31/29
s 3
f 23/35/28 22/33/27 11/17/47 10/15/48
s 1
f 24/36/24 23/34/23 10/14/49 9/13/50
f 9/13/50 10/14/49 26/38/2 25/37/1
s 3
f 10/15/48 11/17/47 27/41/18 26/39/17
s 2
f 28/42/12 27/40/11 11/16/46 12/18/45
